# xmcd
#
# Track frame offsets: 
#        150
#        15425
#        28488
#        44570
#        61233
#        77432
#        92725
#        106970
#        120694
#        134945
#
# Disc length: 1961 seconds
#
# Revision: 0
# Processed by: cddbd v1.5.2PL0 Copyright (c) Steve Scherf et al.
# Submitted via: ExactAudioCopy v0.99pb5
#
DISCID=8607a70a
DTITLE=Con Hunley - Ask Any Woman
DYEAR=2005
DGENRE=Country
TTITLE0=He Will Break Your Heart
TTITLE1=Don't It Break Your Heart
TTITLE2=When It's Over
TTITLE3=I'm Back To Putting Up A Front Again
TTITLE4=Table For One
TTITLE5=Ask Any Woman
TTITLE6=Would You Let A Fool Come In
TTITLE7=She's Steppin' Out
TTITLE8=No Relief In Sight
TTITLE9=Tryin' To Love Two
EXTD=
EXTT0=
EXTT1=
EXTT2=
EXTT3=
EXTT4=
EXTT5=
EXTT6=
EXTT7=
EXTT8=
EXTT9=
PLAYORDER=
